<svg id="Component_9_1" data-name="Component 9 – 1" xmlns="http://www.w3.org/2000/svg" width="104" height="104" viewBox="0 0 104 104">
  <defs>
    <style>
      .cls-1 {
        fill: #e8fcf8;
      }

      .cls-2 {
        fill: #128870;
      }
    </style>
  </defs>
  <g id="Group_19" data-name="Group 19">
    <path id="Path_11" data-name="Path 11" class="cls-1" d="M52,0A52,52,0,1,1,0,52,52,52,0,0,1,52,0Z"/>
  </g>
  <path id="_020-telegram" data-name="020-telegram" class="cls-2" d="M67.459,1.4A2.463,2.463,0,0,0,64.706.651L2.309,23.2a3.5,3.5,0,0,0-.785,6.178l8.919,6.089a2.807,2.807,0,0,0,2.9.165l19.347-10.2L17.612,36.688a2.829,2.829,0,0,0-1.131,2.255V49.373a2.929,2.929,0,0,0,4.544,2.438L27.8,47.316l6.664,4.544a3.512,3.512,0,0,0,4.962-1.048l28.23-46.55a2.471,2.471,0,0,0-.2-2.858ZM36.3,48.282l-6.9-4.705a2.8,2.8,0,0,0-3.142-.02l-5.785,3.837V39.532L47.094,19.651a2.815,2.815,0,0,0-3-4.745L12.108,31.775l-7.544-5.15L62.023,5.861Zm0,0" transform="translate(17.5 25.832)"/>
</svg>
