<svg id="Component_13_1" data-name="Component 13 – 1" xmlns="http://www.w3.org/2000/svg" width="104" height="104" viewBox="0 0 104 104">
  <defs>
    <style>
      .cls-1 {
        fill: #e8fcf8;
      }

      .cls-2 {
        fill: #128870;
      }
    </style>
  </defs>
  <circle id="Ellipse_13" data-name="Ellipse 13" class="cls-1" cx="52" cy="52" r="52"/>
  <g id="tik-tok" transform="translate(21.832 13.859)">
    <path id="Path_7" data-name="Path 7" class="cls-2" d="M69.329,75.907A20.571,20.571,0,0,1,63.392,35.64a7.465,7.465,0,0,1,9.086,4.312c.095.229.178.466.249.7a7.492,7.492,0,0,1-5.014,9.337,5.584,5.584,0,0,0-1.232,10.147,5.553,5.553,0,0,0,3.091.779,5.629,5.629,0,0,0,5.34-5.694V7.5A7.588,7.588,0,0,1,80.426.17a7.264,7.264,0,0,1,1.091-.214,7.556,7.556,0,0,1,7.859,4.579,7.447,7.447,0,0,1,.57,2.867,12.712,12.712,0,0,0,4.947,10.092,12.655,12.655,0,0,0,7.792,2.693,7.559,7.559,0,0,1,6.968,4.646,7.441,7.441,0,0,1,.5,3.914,7.583,7.583,0,0,1-7.519,6.427h-.039A27.534,27.534,0,0,1,89.9,32.031V55.373c0,.024,0,.047,0,.073A20.591,20.591,0,0,1,69.329,75.907ZM65.562,39.77a3.07,3.07,0,0,0-.887.132,16.238,16.238,0,0,0-8.218,5.734A16.115,16.115,0,1,0,85.447,55.4c0-.016,0-.036,0-.058V23.64l3.541,2.591a23.124,23.124,0,0,0,13.623,4.492h.016a3.112,3.112,0,0,0,3.112-2.606,2.936,2.936,0,0,0-.2-1.567,3.158,3.158,0,0,0-2.876-1.911,17.058,17.058,0,0,1-10.51-3.633A17.139,17.139,0,0,1,85.495,7.4a3.016,3.016,0,0,0-.23-1.162A3.055,3.055,0,0,0,82.9,4.394l-.019,0a3.063,3.063,0,0,0-.84-.015,2.983,2.983,0,0,0-.433.086A3.122,3.122,0,0,0,79.363,7.5V55.221A10.185,10.185,0,0,1,76.6,62.212a9.9,9.9,0,0,1-6.839,3.15,10.036,10.036,0,0,1-3.331-19.635,3.042,3.042,0,0,0,2.036-3.79c-.028-.095-.064-.193-.1-.288a3.024,3.024,0,0,0-2.8-1.88ZM89.9,55.41v0Z" transform="translate(-48.76 0.097)"/>
  </g>
</svg>
