<svg id="Component_10_1" data-name="Component 10 – 1" xmlns="http://www.w3.org/2000/svg" width="104" height="104" viewBox="0 0 104 104">
  <defs>
    <style>
      .cls-1 {
        fill: #e8fcf8;
      }

      .cls-2 {
        fill: #128870;
      }
    </style>
  </defs>
  <circle id="Ellipse_13" data-name="Ellipse 13" class="cls-1" cx="52" cy="52" r="52"/>
  <path id="_004-twitter" data-name="004-twitter" class="cls-2" d="M23.951,51.97c-10.506,0-18.81-1.836-22.782-5.035l-.077-.062-.07-.07a3.231,3.231,0,0,1-.848-3.4l.037-.1a3.29,3.29,0,0,1,3-2.066,27.126,27.126,0,0,0,7.173-.989,13.614,13.614,0,0,1-7.175-8.291,2.939,2.939,0,0,1,1.025-3.427,3,3,0,0,1,.895-.457,19.853,19.853,0,0,1-4.071-7.3L1.036,20.7l-.017-.084a3.06,3.06,0,0,1,1.417-3.284,3.047,3.047,0,0,1,1.451-.41,15.349,15.349,0,0,1-1.159-3.538A14.8,14.8,0,0,1,4.3,3.521l.39-.781a2.177,2.177,0,0,1,3.487-.566l.711.712c5.619,5.891,10.652,8.686,19.354,10.6A15.418,15.418,0,0,1,32.409,4.6,14.6,14.6,0,0,1,42.833,0h.026c2.882,0,6.457,1.645,8.619,2.806C53.333,2.2,55.568,1.26,57.887.267a2.928,2.928,0,0,1,3.275.577A2.877,2.877,0,0,1,61.786,4q-.253.7-.572,1.38a2.932,2.932,0,0,1,.853.588,3.166,3.166,0,0,1,.788,2.959l-.028.1a12.076,12.076,0,0,1-4.853,6.659C57.6,35.767,42.48,51.97,23.951,51.97ZM4.709,44.879c3.744,2.118,10.878,3.4,19.242,3.4A28.824,28.824,0,0,0,45.32,38.556a34.831,34.831,0,0,0,8.97-23.634v-.1A2.175,2.175,0,0,1,55.45,12.9a7.838,7.838,0,0,0,3.392-3.753,2.177,2.177,0,0,1-2.1-3.429,11.983,11.983,0,0,0,.823-1.3c-2,.841-3.9,1.595-5.554,2.1a2.361,2.361,0,0,1-1.816-.2C47.259,4.677,44.522,3.7,42.871,3.693a11.478,11.478,0,0,0-11.04,11.631,2.178,2.178,0,0,1-2.6,2.136C19.2,15.484,13.254,12.52,7.071,6.307a10.9,10.9,0,0,0-.718,6.373,13.47,13.47,0,0,0,3.2,6.2,2.177,2.177,0,0,1-2.2,3.539,9.97,9.97,0,0,1-2.03-.78,18.39,18.39,0,0,0,6.3,7.313,2.177,2.177,0,0,1-1.392,3.966,9.787,9.787,0,0,1-2.889-.625c1.566,3.188,4.067,4.943,7.921,5.613a2.177,2.177,0,0,1,.647,4.069A26.157,26.157,0,0,1,4.709,44.879Zm0,0" transform="translate(19.859 26.332)"/>
</svg>
