<svg id="Component_6_1" data-name="Component 6 – 1" xmlns="http://www.w3.org/2000/svg" width="104" height="104" viewBox="0 0 104 104">
  <defs>
    <style>
      .cls-1 {
        fill: #e8fcf8;
      }

      .cls-2 {
        fill: #128870;
      }
    </style>
  </defs>
  <circle id="Ellipse_13" data-name="Ellipse 13" class="cls-1" cx="52" cy="52" r="52"/>
  <g id="_018-youtube" data-name="018-youtube" transform="translate(17.323 25.639)">
    <path id="Path_5" data-name="Path 5" class="cls-2" d="M210.483,115.278l-15.361-8.4a2.821,2.821,0,0,0-4.176,2.475v16.665A2.816,2.816,0,0,0,195.1,128.5l15.361-8.26a2.821,2.821,0,0,0,.018-4.96Zm-15.462,8.639V111.462l11.481,6.282Zm0,0" transform="translate(-165.015 -92.057)"/>
    <path id="Path_6" data-name="Path 6" class="cls-2" d="M69.018,12.429l0-.032c-.059-.56-.645-5.538-3.065-8.07A11.314,11.314,0,0,0,58.456.815C58.33.8,58.215.787,58.111.773L57.99.761C48.8.092,34.916,0,34.777,0h-.024c-.139,0-14.021.092-23.3.76l-.123.013c-.1.013-.207.025-.326.039a11.029,11.029,0,0,0-7.45,3.622c-2.3,2.5-2.971,7.376-3.04,7.924l-.008.071C.49,12.662,0,18.206,0,23.772v5.2c0,5.566.491,11.11.511,11.343l0,.035c.059.551.645,5.437,3.053,7.97a11.546,11.546,0,0,0,7.744,3.464c.283.032.526.06.692.089l.161.022c5.307.505,21.948.754,22.653.764h.042c.139,0,14.02-.092,23.213-.76l.121-.013c.116-.015.247-.029.39-.044a10.774,10.774,0,0,0,7.386-3.533c2.3-2.505,2.972-7.377,3.04-7.924l.008-.071c.021-.233.512-5.777.512-11.343v-5.2c0-5.566-.491-11.109-.512-11.343ZM65.455,28.975c0,5.151-.45,10.457-.492,10.944-.173,1.342-.876,4.424-2,5.644a6.7,6.7,0,0,1-4.809,2.231c-.157.016-.3.032-.434.049-8.891.643-22.249.742-22.864.745-.69-.01-17.087-.261-22.233-.739-.264-.043-.549-.076-.849-.11a7.619,7.619,0,0,1-5.211-2.177l-.038-.04c-1.1-1.15-1.786-4.032-1.96-5.588-.032-.368-.494-5.736-.494-10.96v-5.2c0-5.146.449-10.445.492-10.942.206-1.58.922-4.476,2-5.646A7.03,7.03,0,0,1,11.476,4.86l.332-.04c9.02-.646,22.474-.742,22.957-.746s13.932.1,22.872.746l.359.042a7.3,7.3,0,0,1,4.99,2.26L63,7.141c1.1,1.15,1.786,4.082,1.96,5.67.031.347.494,5.727.494,10.962Zm0,0" transform="translate(0.001 0)"/>
  </g>
</svg>
